# xmcd
#
# Track frame offsets:
# 150
# 24106
# 45532
# 63024
# 82616
# 103023
# 125311
# 152176
# 173353
# 195724
# 216735
# 232911
# 252221
# 270840
# 288224
#
# Disc length: 4117 seconds
#
#
# Revision: 0
# Processed by: cddbd v1.5.2PL0 Copyright (c) Steve Scherf et al.
# Submitted via: FreeRIP 2.942 
#
DISCID=b310130f
DTITLE=費玉清 - 脈脈聲情
DYEAR=2006
DGENRE=Vocal
TTITLE0=情深往事
TTITLE1=你是我永遠的鄉愁
TTITLE2=一生的朋友
TTITLE3=情關
TTITLE4=紅塵來去一場夢
TTITLE5=多情總為無情傷
TTITLE6=直到永遠
TTITLE7=負心
TTITLE8=你我曾經走過紀元
TTITLE9=相思比夢長
TTITLE10=來不及把夢留給你
TTITLE11=冬之夜
TTITLE12=新鴛鴦蝴蝶夢
TTITLE13=花心
TTITLE14=昨日再現
EXTD=
EXTT0=
EXTT1=
EXTT2=
EXTT3=
EXTT4=
EXTT5=
EXTT6=
EXTT7=
EXTT8=
EXTT9=
EXTT10=
EXTT11=
EXTT12=
EXTT13=
EXTT14=
PLAYORDER=
